<svg width="153" height="70" viewBox="0 0 153 70" fill="none" xmlns="http://www.w3.org/2000/svg">
<g clip-path="url(#clip0_768_5413)">
<g clip-path="url(#clip1_768_5413)">
<path d="M39.4403 7.28247H-3.44027C-8.16023 7.28247 -12 11.1224 -12 15.8422V44.7829C-12 49.5028 -8.16023 53.3427 -3.44027 53.3427H-0.0813284L-0.0155859 60.8993C-0.0115366 61.383 0.183464 61.8455 0.526946 62.1861C0.870428 62.5266 1.33457 62.7177 1.81828 62.7177C2.22392 62.7178 2.61814 62.5833 2.93918 62.3354L14.5905 53.3427H39.4403C44.1602 53.3427 48 49.5028 48 44.7829V15.8422C48 11.1224 44.1602 7.28247 39.4403 7.28247ZM44.3316 44.7831C44.3316 47.4801 42.1373 49.6743 39.4403 49.6743H13.9651C13.5596 49.6743 13.1655 49.8088 12.8445 50.0565L3.62051 57.1756L3.57105 51.4926C3.56238 50.4859 2.74371 49.6743 1.73695 49.6743H-3.44027C-6.13734 49.6743 -8.33156 47.4801 -8.33156 44.7831V15.8422C-8.33156 13.1451 -6.13734 10.9509 -3.44027 10.9509H39.4404C42.1375 10.9509 44.3317 13.1451 44.3317 15.8422L44.3316 44.7831Z" fill="#D5D8DC"/>
<path d="M107.44 7.28247H64.5597C59.8398 7.28247 56 11.1224 56 15.8422V44.7829C56 49.5028 59.8398 53.3427 64.5597 53.3427H67.9187L67.9844 60.8993C67.9885 61.383 68.1835 61.8455 68.5269 62.1861C68.8704 62.5266 69.3346 62.7177 69.8183 62.7177C70.2239 62.7178 70.6181 62.5833 70.9392 62.3354L82.5905 53.3427H107.44C112.16 53.3427 116 49.5028 116 44.7829V15.8422C116 11.1224 112.16 7.28247 107.44 7.28247ZM112.332 44.7831C112.332 47.4801 110.137 49.6743 107.44 49.6743H81.9651C81.5596 49.6743 81.1655 49.8088 80.8445 50.0565L71.6205 57.1756L71.5711 51.4926C71.5624 50.4859 70.7437 49.6743 69.737 49.6743H64.5597C61.8627 49.6743 59.6684 47.4801 59.6684 44.7831V15.8422C59.6684 13.1451 61.8627 10.9509 64.5597 10.9509H107.44C110.137 10.9509 112.332 13.1451 112.332 15.8422L112.332 44.7831Z" fill="#D5D8DC"/>
<path d="M175.44 7.28247H132.56C127.84 7.28247 124 11.1224 124 15.8422V44.7829C124 49.5028 127.84 53.3427 132.56 53.3427H135.919L135.984 60.8993C135.988 61.383 136.183 61.8455 136.527 62.1861C136.87 62.5266 137.335 62.7177 137.818 62.7177C138.224 62.7178 138.618 62.5833 138.939 62.3354L150.591 53.3427H175.44C180.16 53.3427 184 49.5028 184 44.7829V15.8422C184 11.1224 180.16 7.28247 175.44 7.28247ZM180.332 44.7831C180.332 47.4801 178.137 49.6743 175.44 49.6743H149.965C149.56 49.6743 149.166 49.8088 148.844 50.0565L139.621 57.1756L139.571 51.4926C139.562 50.4859 138.744 49.6743 137.737 49.6743H132.56C129.863 49.6743 127.668 47.4801 127.668 44.7831V15.8422C127.668 13.1451 129.863 10.9509 132.56 10.9509H175.44C178.137 10.9509 180.332 13.1451 180.332 15.8422L180.332 44.7831Z" fill="#D5D8DC"/>
</g>
</g>
<defs>
<clipPath id="clip0_768_5413">
<rect width="153" height="70" fill="white"/>
</clipPath>
<clipPath id="clip1_768_5413">
<rect width="196" height="60" fill="white" transform="translate(-12 5)"/>
</clipPath>
</defs>
</svg>
