<svg width="250" height="110" viewBox="0 0 250 110" fill="none" xmlns="http://www.w3.org/2000/svg">
<path d="M0 5H30V105H0" stroke="#D5D8DC" stroke-width="10"/>
<path d="M50 5V105H200V5H50Z" stroke="#D5D8DC" stroke-width="10"/>
<path d="M250 105L220 105L220 5L250 5" stroke="#D5D8DC" stroke-width="10"/>
<path d="M145 44.3333C151 44.3333 155.667 49.3333 155.667 55H160.667C160.667 46.3333 153.667 39 144.667 39V44.3333H145ZM134.334 55C134.334 49 139.334 44.3333 145 44.3333V39C136.334 39 129 46 129 55H134.334ZM145 65.6667C139 65.6667 134.334 60.6667 134.334 55H129.334C129.334 63.6667 136.334 71 145.334 71V65.6667H145ZM145 71C153.667 71 161 64 161 55H156C156 61 151 65.6667 145.334 65.6667V71H145ZM98.3337 52.3333C97.0003 52.3333 95.667 53.3333 95.667 55C95.667 56.6667 96.667 57.6667 98.3337 57.6667V52.3333ZM118.334 57.6667C119.667 57.6667 121 56.6667 121 55C121 53.3333 120 52.3333 118.334 52.3333V57.6667ZM98.3337 57.6667H118.334V52.6667H98.3337V57.6667Z" fill="#D5D8DC"/>
<path d="M108.334 28.3334L110.667 27.3334C110.334 26.3334 109.334 25.6667 108.334 25.6667C107.334 25.6667 106.334 26.3334 106 27.3334L108.334 28.3334ZM89.3338 67.3334C88.6671 68.6668 89.3338 70.0001 90.6671 70.6668C92.0005 71.3334 93.3338 70.6667 94.0005 69.3334L89.3338 67.3334ZM122.667 69.3334C123.334 70.6667 124.667 71.3334 126 70.6668C127.334 70.0001 128 68.6668 127.334 67.3334L122.667 69.3334ZM106 27.3334L89.3338 67.3334L94.0005 69.3334L110.667 29.3334L106 27.3334ZM127.334 67.3334L110.667 27.3334L106 29.3334L122.667 69.3334L127.334 67.3334ZM158.334 71.0001C157 71.0001 155.667 70.0001 155.667 68.3334V41.6667C155.667 40.3334 156.667 39.0001 158.334 39.0001C160 39.0001 161 40.0001 161 41.6667V68.3334C161 69.6668 159.667 71.0001 158.334 71.0001Z" fill="#D5D8DC"/>
</svg>
